<svg xmlns="http://www.w3.org/2000/svg" viewBox="0 0 885 885">
	<path fill="#333333" d="M745 855C628 830 508 780 431 684c-17-17-26-51-35-65-47 67-122 112-203 123 49-39 52-107 54-165
	2-40-15-79-10-119 4-114 94-216 204-235 108-22 226 38 272 139 32 67 33 149 2 217 5-51 3-113-42-147-44-34-120-13-138 41
	26 24 64 24 97 17 43-25 26 42 36 69 12 81 27 163 57 240 1 17 37 53 24 57l-4-1 0 0zM130 481c-6-135 49-275 154-360 97-81
	229-104 352-93 41 4 83 10 123 21-22 69-43 138-66 207-73-71-182-102-281-75-127 31-226 155-224 288-8 15-46 23-59 19l0-8
	0 0z"/>
</svg>