<svg xmlns="http://www.w3.org/2000/svg" viewBox="10 0 370 370">
	<style>.a{fill: #e7eced}</style>
	<path class="a" d="m191 79c-18-3-35 11-48 15-28-19-69-10-89 17-13 16-15 36-14 55 0 17 0 35 0 52 10 16 20-8 17-18 2-17 3-35 5-52 11-6 7 13 8 20 0 61 0 122 0 183 3 14 26 9 24-5 3-34 6-67 8-101 12-12 10 16 12 24 3 28 5 55 9 83 5 15 27 4 21-9 0-64 0-129 0-193 9-11 7 11 7 17 0 64 0 129 0 193 5 16 30 7 25-9 3-34 6-68 9-103 11-13 11 14 12 22 3 30 6 60 9 91 5 16 28 4 22-10 0-62 0-123 0-185-1-7 4-29 10-14 1 56 0 112 0 168 0 11-1 23 1 34 9 14 29 1 24-14 3-31 5-63 8-94 12-12 10 16 12 24 3 28 5 55 9 83 5 15 27 4 21-9 0-64 0-129 0-193 9-11 10 9 10 16 2 18 3 36 6 53 10 14 19-7 14-17 0-23 1-46-1-68-7-36-49-60-84-48-11 3-20 15-29 2C216 83 203 79 191 79Z"/>
	<circle class="a" r="32" cx="107" cy="44"/>
	<circle class="a" r="32" cx="188" cy="40"/>
	<circle class="a" r="32" cx="275" cy="44"/>
</svg>